<?xml version="1.0" encoding="UTF-8" standalone="no"?>
<!-- Created with Inkscape (http://www.inkscape.org/) -->

<svg
   width="44.608501mm"
   height="18.364367mm"
   viewBox="0 0 44.608501 18.364367"
   version="1.1"
   id="svg1"
   xml:space="preserve"
   inkscape:version="1.3.2 (091e20e, 2023-11-25, custom)"
   sodipodi:docname="RadVectorLogo-WhiteTrp.svg"
   xmlns:inkscape="http://www.inkscape.org/namespaces/inkscape"
   xmlns:sodipodi="http://sodipodi.sourceforge.net/DTD/sodipodi-0.dtd"
   xmlns="http://www.w3.org/2000/svg"
   xmlns:svg="http://www.w3.org/2000/svg"><sodipodi:namedview
     id="namedview1"
     pagecolor="#ffffff"
     bordercolor="#000000"
     borderopacity="0.25"
     inkscape:showpageshadow="2"
     inkscape:pageopacity="0.0"
     inkscape:pagecheckerboard="true"
     inkscape:deskcolor="#d1d1d1"
     inkscape:document-units="mm"
     inkscape:zoom="5.7941078"
     inkscape:cx="84.741261"
     inkscape:cy="57.731063"
     inkscape:window-width="1920"
     inkscape:window-height="1009"
     inkscape:window-x="-8"
     inkscape:window-y="-8"
     inkscape:window-maximized="1"
     inkscape:current-layer="layer1" /><defs
     id="defs1" /><g
     inkscape:label="Layer 1"
     inkscape:groupmode="layer"
     id="layer1"
     transform="translate(-82.723429,-139.27465)"><g
       id="LinkGroup"
       transform="matrix(0,1,1,0,105.75991,148.80019)"
       style="fill:#ffffff;stroke:none;stroke-opacity:1"><path
         id="LinkGroup_w0000"
         d="M 5.39291,-8.8816447 3.0792663,-12.225936 A 3.95,3.95 0 0 1 -0.382861,-8.47643 l -5.3521014,1.6e-6 A 3.95,3.95 0 0 1 -9.19709,-12.2259 v -10.250036 h 3.2 v 9.32 a 1.81,1.81 0 0 0 1.4403,1.479536 l 2.9957521,-2.8e-5 A 1.81,1.81 0 0 0 -0.120734,-13.1559 l 3.2e-7,-9.320036 L 8.6636726,-9.7783843 8.5928967,14.774047 A 9.28285,9.28285 0 0 1 -9.19709,14.7648 V 5.5987173 h 3.2 v 9.1661057 a 6.44,6.44 0 0 0 11.39,-2.3e-5 V 8.8816447 L 3.940406,7.9974346 v -3.2 L 5.39291,5.6816447 V -5.6816447 l -1.452504,0.8842101 v -3.2 L 5.39291,-8.8816447"
         stroke="#000000"
         stroke-width="0.35 px"
         style="fill:#ffffff;fill-opacity:1;fill-rule:evenodd;stroke-width:0.35;stroke-linecap:square;stroke-miterlimit:4;stroke-dasharray:none;stroke:none;stroke-opacity:1" /><path
         id="LinkGroup_w0001"
         d="m -0.341342,5.7623453 v -3.2 L -4.2792324,0 0,-2.3987173 v -3.2 L -9.19709,0 Z"
         stroke="#000000"
         stroke-width="0.35 px"
         style="fill:#ffffff;fill-opacity:1;fill-rule:evenodd;stroke-width:0.35;stroke-linecap:square;stroke-miterlimit:4;stroke-dasharray:none;stroke:none;stroke-opacity:1"
         sodipodi:nodetypes="ccccccc" /><path
         id="LinkGroup_w0002"
         d="M 3.940406,2.3987173 V -2.3987173 L 0,0 Z"
         stroke="#000000"
         stroke-width="0.35 px"
         style="fill:#ffffff;fill-opacity:1;fill-rule:evenodd;stroke-width:0.35;stroke-linecap:square;stroke-miterlimit:4;stroke-dasharray:none;stroke:none;stroke-opacity:1"
         sodipodi:nodetypes="cccc" /><title
         id="title1">b'RCTLogoSketchIMPORT'</title></g></g></svg>
